<?xml version="1.0" encoding="UTF-8" standalone="no"?>
<!-- Created with Inkscape (http://www.inkscape.org/) -->

<svg
   width="138.99619mm"
   height="129.89279mm"
   viewBox="0 0 138.99619 129.89279"
   version="1.1"
   id="svg1"
   xml:space="preserve"
   inkscape:version="1.4 (86a8ad7, 2024-10-11)"
   sodipodi:docname="RehPublic_Icon_oT.svg"
   xmlns:inkscape="http://www.inkscape.org/namespaces/inkscape"
   xmlns:sodipodi="http://sodipodi.sourceforge.net/DTD/sodipodi-0.dtd"
   xmlns="http://www.w3.org/2000/svg"
   xmlns:svg="http://www.w3.org/2000/svg"><sodipodi:namedview
     id="namedview1"
     pagecolor="#ffffff"
     bordercolor="#000000"
     borderopacity="0.25"
     inkscape:showpageshadow="2"
     inkscape:pageopacity="0.0"
     inkscape:pagecheckerboard="0"
     inkscape:deskcolor="#d1d1d1"
     inkscape:document-units="mm"
     inkscape:zoom="1.5162318"
     inkscape:cx="310.63853"
     inkscape:cy="396.04763"
     inkscape:window-width="1920"
     inkscape:window-height="1111"
     inkscape:window-x="2391"
     inkscape:window-y="262"
     inkscape:window-maximized="1"
     inkscape:current-layer="layer1" /><defs
     id="defs1" /><g
     inkscape:label="Ebene 1"
     inkscape:groupmode="layer"
     id="layer1"
     transform="translate(-22.609668,-7.5203665)"><path
       style="fill:#000000"
       d="m 52.481074,136.89845 c -0.791618,-1.47915 -1.616261,-8.8338 -1.827804,-16.30143 -0.469589,-16.57681 1.192405,-30.551822 5.302004,-44.582293 2.430164,-8.296759 6.777037,-16.712972 11.596919,-22.453415 l 1.582495,-1.884739 -1.259001,-1.562405 c -4.216734,-5.232917 -5.395441,-12.76548 -3.066051,-19.593681 1.277301,-3.744183 3.888857,-8.216174 4.798086,-8.216174 0.647137,0 1.475363,1.098299 2.394267,3.175 1.220787,2.758951 4.21174,7.232884 6.493945,9.713786 0.21871,0.237753 0.288034,-0.517561 0.267125,-2.910416 -0.02395,-2.740541 -0.156892,-3.713866 -0.875042,-6.406495 -1.130442,-4.23847 -1.527539,-8.242196 -1.16876,-11.784004 0.238401,-2.353451 0.361053,-2.796794 0.892889,-3.227448 0.420502,-0.340502 0.832156,-0.446458 1.294713,-0.33325 1.154052,0.282448 1.467172,0.793886 1.336199,2.182493 -0.248812,2.637958 -0.113316,8.486238 0.242557,10.469201 l 0.371402,2.069493 0.95683,-1.818359 c 2.28353,-4.339591 6.11595,-8.602218 10.1433,-11.281926 2.76606,-1.840473 3.76699,-2.083322 4.65974,-1.130564 0.8072,0.861456 0.59449,1.882381 -0.52146,2.50285 -3.43658,1.910731 -7.02743,4.993522 -9.29594,7.980668 -1.54526,2.034791 -3.70494,6.362099 -4.29417,8.604179 -0.85651,3.259076 -0.77553,8.25033 0.17372,10.707417 0.25183,0.651858 0.26947,0.638171 0.66307,-0.514717 1.02612,-3.005541 3.85495,-6.38074 7.95672,-9.493496 5.28764,-4.012695 4.99018,-3.823643 5.72562,-3.63906 0.91947,0.230773 1.09949,1.135376 0.7127,3.581309 -0.17433,1.102409 -0.43191,4.075179 -0.5724,6.606154 -0.25683,4.627101 -0.70096,7.330307 -1.43874,8.757018 -0.54768,1.059089 -0.52757,1.117142 0.61205,1.76769 2.91831,1.665892 5.181773,4.310359 7.208123,8.421434 2.41097,4.891404 5.56605,8.233616 10.89589,11.542115 2.80917,1.743796 3.45478,2.442705 3.94315,4.268645 0.41438,1.549348 0.0207,3.420346 -1.1827,5.620489 -1.2621,2.307519 -2.10903,2.658269 -7.32268,3.032649 -5.49274,0.39442 -7.04121,0.64148 -13.361463,2.13186 -4.33667,1.02263 -7.33156,1.40022 -9.46601,1.19345 l -1.7931,-0.1737 -0.61076,1.40578 c -2.53937,5.84496 -2.45338,13.37492 0.21886,19.165132 3.24931,7.04062 9.57127,11.84987 17.193463,13.07946 2.66731,0.43029 7.12087,0.18263 9.67109,-0.53779 11.05355,-3.12257 18.25265,-14.43809 16.29984,-25.620012 -0.60368,-3.45672 -1.7841,-6.30595 -3.92987,-9.48577 -1.81099,-2.6837 -1.83844,-2.74966 -1.41377,-3.3978 0.92225,-1.407529 2.02205,-0.707809 4.40659,2.80359 6.45368,9.50346 5.34511,22.724632 -2.61846,31.228742 -2.34939,2.50886 -4.54077,4.19203 -7.19629,5.52737 -5.80913,2.92115 -12.38934,3.53872 -18.777203,1.76229 -8.74691,-2.43247 -15.53099,-9.42623 -18.034187,-18.59156 -0.466036,-1.706372 -0.574461,-2.849112 -0.587647,-6.193482 -0.01836,-4.65681 0.503661,-7.41406 1.995494,-10.5399 0.50807,-1.06458 0.71738,-1.77455 0.54053,-1.8335 -0.55887,-0.18628 -2.295633,-1.69511 -2.757742,-2.39579 -0.596903,-0.90508 -0.593445,-1.44218 0.01282,-1.990846 0.70601,-0.638929 0.985166,-0.556361 2.188981,0.647446 0.59693,0.59694 1.75779,1.40061 2.57968,1.78594 1.34802,0.632 1.79233,0.70007 4.53707,0.6951 2.62648,-0.005 3.56751,-0.13907 6.87916,-0.98179 4.785564,-1.2178 7.647684,-1.67804 13.353344,-2.147276 l 4.48979,-0.369245 0.86763,-1.003702 c 1.34635,-1.557496 1.80744,-3.917695 0.99264,-5.080996 -0.22272,-0.317974 -1.75924,-1.472419 -3.41448,-2.565433 -4.66578,-3.080969 -9.30137,-8.066534 -10.71716,-11.526258 -1.920194,-4.692344 -5.004234,-7.627542 -9.782034,-9.309937 -1.40298,-0.494028 -6.81065,-1.302588 -7.23295,-1.081479 -0.10915,0.05714 -0.19844,0.487096 -0.19844,0.955452 0,1.107668 -0.65848,2.027631 -1.45131,2.027631 -1.07344,0 -1.36517,-0.586603 -1.54388,-3.104382 -0.30945,-4.359513 -1.19175,-6.270459 -5.017308,-10.866826 -3.006633,-3.612437 -6.272592,-8.70058 -6.274436,-9.775145 -0.0012,-0.712421 -0.551004,-0.270677 -1.152525,0.926042 -0.926137,1.842541 -1.951479,4.980074 -2.269718,6.945312 -0.95429,5.893071 0.60712,11.04978 4.72671,15.610416 0.591516,0.654843 1.075648,1.409289 1.075849,1.676546 2.02e-4,0.267257 -0.688775,1.219757 -1.531058,2.116667 -7.497414,7.983655 -12.550841,19.772362 -15.500106,36.158863 -1.462027,8.12322 -2.135149,16.454652 -2.137647,26.458342 -0.002,7.8679 0.26905,11.94027 1.139463,17.1219 0.249646,1.48616 0.364172,2.94468 0.254501,3.24115 -0.265737,0.71835 -1.67488,0.74541 -2.052718,0.0394 z M 92.689567,45.044192 c 0.8659,-1.617941 1.15341,-3.655326 1.6667,-11.810707 l 0.0865,-1.373953 -1.58813,1.109369 c -3.88168,2.711499 -6.29645,5.736751 -7.61615,9.541564 l -0.74612,2.151139 2.91172,0.3112 c 1.60145,0.17116 3.05715,0.370119 3.23489,0.442132 0.80449,0.325939 1.77131,0.151141 2.05061,-0.370744 z M 33.812133,128.48199 c -2.585266,-0.34373 -5.08112,-1.56736 -7.073786,-3.46805 -1.688943,-1.61097 -2.800999,-3.36778 -3.54958,-5.60755 -0.461106,-1.37964 -0.490297,-3.33753 -0.562126,-37.703122 -0.05169,-24.730997 0.01398,-36.83637 0.206679,-38.099998 0.753629,-4.941832 4.773913,-9.333225 9.553179,-10.435023 0.688013,-0.158612 5.977267,-0.2703 12.982255,-0.274133 12.849259,-0.007 12.652752,-0.02953 12.652752,1.44874 0,1.474477 0.162987,1.455208 -12.309,1.455208 -7.306929,0 -11.967649,0.105129 -12.826494,0.289318 -1.909886,0.409597 -4.409992,2.165088 -5.616924,3.944016 -1.906306,2.809753 -1.810355,0.519798 -1.730625,41.302662 l 0.07159,36.617132 0.839892,1.77289 c 1.070389,2.25945 2.804983,3.99278 5.060127,5.05645 1.748256,0.82459 1.842154,0.8381 6.75583,0.97218 4.538794,0.12386 5.016348,0.18175 5.357813,0.64957 0.508433,0.69656 0.471733,1.10934 -0.154288,1.73536 -0.488116,0.48812 -0.852441,0.52609 -4.696354,0.48953 -2.291953,-0.0218 -4.524375,-0.0871 -4.960937,-0.14518 z m 89.378457,-0.12306 c -0.31894,-0.15861 -0.64302,-0.45291 -0.72019,-0.654 -0.23564,-0.61409 0.32002,-1.66103 0.95998,-1.80872 0.33257,-0.0768 6.61732,-0.16937 13.96613,-0.20582 l 13.36145,-0.0663 1.5875,-0.6383 c 1.12335,-0.45168 2.05629,-1.10923 3.19086,-2.24896 1.77624,-1.78433 2.61918,-3.29745 3.02291,-5.42633 0.38475,-2.02879 0.36685,-71.353307 -0.019,-73.460209 -0.36423,-1.989006 -1.30076,-3.722179 -2.8466,-5.268023 -1.7198,-1.719798 -3.57802,-2.557904 -6.21288,-2.802164 -1.18932,-0.110255 -11.08328,-0.213668 -21.98658,-0.229808 -13.97538,-0.02069 -19.92753,-0.115118 -20.17448,-0.320066 -0.43701,-0.362686 -0.45706,-1.60083 -0.0328,-2.025094 0.24176,-0.241756 5.46746,-0.3175 21.90483,-0.3175 23.90061,0 23.30761,-0.03877 26.17579,1.711181 2.65246,1.61833 4.50387,3.940444 5.6332,7.065389 l 0.60514,1.674471 v 36.909371 c 0,30.606712 -0.0627,37.157872 -0.36719,38.364582 -1.11593,4.42254 -4.15876,7.75481 -8.49635,9.30453 -1.7057,0.6094 -1.83144,0.61491 -15.34583,0.67229 -9.4127,0.04 -13.80535,-0.0313 -14.20592,-0.23053 z M 88.316297,63.326891 c -1.62547,-0.672341 -2.44776,-2.982522 -1.5828,-4.446793 1.108,-1.875688 3.55382,-2.174056 4.95624,-0.604616 0.57788,0.646705 0.7276,1.073513 0.7276,2.074132 0,1.425027 -0.46392,2.251798 -1.59042,2.834333 -0.83712,0.432889 -1.69197,0.481561 -2.51062,0.142944 z M 126.94546,58.97248 c -1.90468,-0.846542 -2.51354,-2.192798 -2.51354,-5.557724 0,-2.112639 0.0835,-2.579841 0.59531,-3.331885 1.34188,-1.971628 1.35148,-1.973911 8.6177,-2.050594 6.36199,-0.06714 6.55628,-0.05355 7.56464,0.529167 1.60766,0.929039 2.1193,2.187274 2.13063,5.239662 0.008,2.279244 -0.0581,2.638488 -0.65203,3.516488 -1.25953,1.862092 -1.99747,2.029776 -8.88093,2.018028 -4.46439,-0.0076 -6.2778,-0.103589 -6.86178,-0.363142 z m 12.85868,-2.769665 c 0.51357,-0.41586 0.63146,-0.803177 0.71967,-2.364373 0.0973,-1.72192 0.0528,-1.919769 -0.57283,-2.545378 l -0.67834,-0.678336 h -5.44801 c -5.43153,0 -5.44998,0.002 -6.09744,0.649432 -0.54433,0.544323 -0.64943,0.904809 -0.64943,2.227319 0,3.069827 0.25251,3.184411 7.04829,3.198309 4.57082,0.0093 5.12372,-0.03807 5.67809,-0.486973 z m 10.10513,-26.889104 c -0.54856,-0.384226 -0.57268,-0.611032 -0.65418,-6.151562 -0.099,-6.727455 -0.28968,-7.417684 -2.33883,-8.464606 -1.07444,-0.548934 -1.51877,-0.595313 -5.70341,-0.595313 h -4.5382 l -0.44828,1.173804 c -0.76922,2.014174 -3.02005,3.58224 -5.14917,3.58722 -2.31767,0.0054 -4.98179,-2.070455 -5.54922,-4.323944 -0.7234,-2.872881 0.86376,-5.9057707 3.55547,-6.7941147 0.52844,-0.174401 1.65179,-0.267111 2.49633,-0.206022 1.92327,0.139116 3.39636,1.055807 4.37203,2.7206747 l 0.70123,1.196549 h 4.72811 c 6.46921,0 8.03833,0.568978 9.66487,3.504584 l 0.77028,1.390207 0.0836,6.301846 c 0.0863,6.507991 0.01,7.059612 -0.98318,7.059612 -0.24085,0 -0.6942,-0.179521 -1.00746,-0.398935 z M 132.57664,15.541377 c 0.71882,-0.503475 1.38063,-1.727258 1.37929,-2.550487 -0.002,-0.934851 -0.90111,-2.199331 -1.84192,-2.589026 -3.06826,-1.2709147 -5.42562,2.974916 -2.82248,5.083545 0.70965,0.574835 2.50076,0.605349 3.28511,0.05597 z"
       id="path1"
       sodipodi:nodetypes="cssscsssssssssssscssssssscssssssssscssscssssssssssssssssssscsscsssssssssscsssssscsscccccsscssccsssscscssssscsssssssscscscsssssssssssscssssccsssssssscssccssssscssscsscsscsssssscssccsssscssss" /></g></svg>
