<?xml version="1.0" encoding="UTF-8" standalone="no"?>
<!-- Created with Inkscape (http://www.inkscape.org/) -->

<svg
   width="169.46332mm"
   height="171.16409mm"
   viewBox="0 0 169.46332 171.16409"
   version="1.1"
   id="svg1"
   xml:space="preserve"
   inkscape:version="1.4 (86a8ad7, 2024-10-11)"
   sodipodi:docname="RehPublic_Icon.svg"
   xmlns:inkscape="http://www.inkscape.org/namespaces/inkscape"
   xmlns:sodipodi="http://sodipodi.sourceforge.net/DTD/sodipodi-0.dtd"
   xmlns="http://www.w3.org/2000/svg"
   xmlns:svg="http://www.w3.org/2000/svg"><sodipodi:namedview
     id="namedview1"
     pagecolor="#ffffff"
     bordercolor="#000000"
     borderopacity="0.25"
     inkscape:showpageshadow="2"
     inkscape:pageopacity="0.0"
     inkscape:pagecheckerboard="0"
     inkscape:deskcolor="#d1d1d1"
     inkscape:document-units="mm"
     inkscape:zoom="0.75811588"
     inkscape:cx="368.01762"
     inkscape:cy="532.24053"
     inkscape:window-width="1920"
     inkscape:window-height="1111"
     inkscape:window-x="2391"
     inkscape:window-y="262"
     inkscape:window-maximized="1"
     inkscape:current-layer="layer1" /><defs
     id="defs1" /><g
     inkscape:label="Ebene 1"
     inkscape:groupmode="layer"
     id="layer1"
     transform="translate(-7.1847025,-7.5203665)"><path
       style="fill:#000000"
       d="m 37.648591,178.26303 c -1.97378,-0.61864 -3.713039,-2.14607 -4.743168,-4.16549 -0.794797,-1.55809 -0.908422,-2.03038 -0.920587,-3.8265 -0.0278,-4.10475 2.122861,-7.49239 5.585223,-8.79763 1.996534,-0.75266 5.453637,-0.65847 7.08999,0.19317 1.964433,1.02239 3.089993,2.79668 3.142468,4.95365 l 0.03253,1.3372 -5.953124,0.13229 -5.953125,0.1323 0.01505,1.87856 c 0.01909,2.38288 0.639989,4.03273 1.969789,5.23413 1.927979,1.74181 4.637294,1.90221 7.346364,0.43491 1.360263,-0.73675 1.526916,-0.77065 1.900727,-0.38671 0.371442,0.38151 0.313365,0.50505 -0.6214,1.32189 -2.089417,1.82582 -5.903943,2.49437 -8.890737,1.55823 z m 6.459454,-12.75299 c -0.250772,-1.38919 -0.546913,-1.87004 -1.515403,-2.46057 -1.036908,-0.63225 -2.573578,-0.66126 -3.815271,-0.072 -0.90175,0.42791 -2.451697,2.43811 -2.451697,3.17972 0,0.26842 0.884276,0.34507 3.980739,0.34507 h 3.980739 z m 57.514505,12.91734 c -1.20517,-0.38993 -2.309113,-1.33143 -2.917943,-2.48858 -0.52904,-1.00549 -0.59235,-1.60363 -0.72162,-6.81697 -0.15518,-6.25887 -0.1958,-6.41553 -1.73862,-6.70496 -0.71661,-0.13444 -0.91661,-0.29924 -0.91659,-0.75528 3e-5,-0.56551 0.093,-0.58441 3.04271,-0.61873 l 3.042683,-0.0354 0.001,5.98853 c 0.002,6.29617 0.16496,7.52169 1.15663,8.67458 0.4854,0.56431 0.89725,0.72685 2.09296,0.82601 1.26283,0.10472 1.66836,0.0181 2.67337,-0.57085 0.65161,-0.38186 1.4604,-1.08079 1.79734,-1.55317 0.58903,-0.82583 0.6126,-1.05323 0.6126,-5.91049 0,-5.58798 -0.0542,-5.7907 -1.62828,-6.08599 -0.73863,-0.13857 -0.89826,-0.27881 -0.83331,-0.7321 0.0763,-0.53218 0.22837,-0.56083 2.99075,-0.56321 l 2.91042,-0.002 0.135,7.27604 c 0.0742,4.00182 0.22963,7.46827 0.34529,7.70322 0.24462,0.49695 1.30143,1.02803 2.0457,1.02803 0.37478,0 0.51672,0.1817 0.51672,0.66146 v 0.66145 h -2.88559 -2.88559 l -0.18195,-1.32291 c -0.10007,-0.72761 -0.23946,-1.32292 -0.30976,-1.32292 -0.0703,0 -0.47301,0.34519 -0.89491,0.7671 -1.21156,1.21156 -2.99208,1.94215 -4.97531,2.04149 -0.96663,0.0484 -2.08001,-0.0163 -2.47418,-0.14385 z m 24.21806,-0.11953 c -0.60767,-0.19862 -1.51469,-0.61442 -2.0156,-0.924 -1.18085,-0.7298 -1.30623,-0.71428 -1.86454,0.23087 -0.31748,0.53746 -0.67763,0.79375 -1.11538,0.79375 h -0.6465 v -11.49215 c 0,-6.8812 -0.10425,-11.76636 -0.25984,-12.17557 -0.22844,-0.60086 -0.53594,-0.80013 -2.06667,-1.33932 -0.24559,-0.0865 -0.26892,-0.25735 -0.0827,-0.60538 0.18175,-0.33961 1.01247,-0.65783 2.77311,-1.06226 1.3825,-0.31757 2.64008,-0.5774 2.79463,-0.5774 0.18997,0 0.281,1.93284 0.281,5.96659 v 5.96659 l 0.92551,-0.70592 c 1.31532,-1.00324 2.65041,-1.41271 4.64976,-1.42606 3.32418,-0.0222 5.88414,1.52939 7.30831,4.42956 0.66327,1.35068 0.74246,1.79417 0.74246,4.15778 0,2.29585 -0.0907,2.83833 -0.68531,4.10104 -0.98827,2.09852 -1.89819,3.04604 -3.84605,4.00496 -1.39118,0.68488 -2.10984,0.8634 -3.75398,0.93254 -1.23379,0.0519 -2.46788,-0.0565 -3.13826,-0.27562 z m 5.0452,-2.10539 c 1.79355,-1.17518 2.66684,-3.33869 2.63388,-6.52524 -0.036,-3.47646 -1.08706,-5.72159 -3.10847,-6.6396 -1.32783,-0.60303 -2.51206,-0.63335 -3.7953,-0.0972 -2.45308,1.02496 -2.97775,2.2349 -2.97775,6.86703 0,4.08255 0.24367,4.9795 1.64259,6.04651 1.5819,1.20658 4.06025,1.36067 5.60505,0.34848 z m 36.22393,1.93006 c -1.8764,-0.74291 -3.83126,-2.55992 -4.60507,-4.28032 -0.5192,-1.15434 -0.62828,-1.83323 -0.62828,-3.91039 0,-3.11415 0.61711,-4.68835 2.54474,-6.49142 1.83132,-1.71298 3.31653,-2.31225 6.07429,-2.45092 3.81828,-0.19198 6.05942,0.76902 6.05942,2.59829 0,1.49193 -1.33595,1.75571 -2.53019,0.49959 -1.5916,-1.67407 -3.2941,-1.99366 -5.34124,-1.00266 -3.54407,1.71566 -4.38342,8.66868 -1.4402,11.93041 1.16628,1.2925 2.25597,1.79587 3.88767,1.79587 1.37781,0 2.74665,-0.50512 4.03803,-1.49011 0.49033,-0.374 0.9271,-0.6382 0.97059,-0.58713 0.0435,0.0511 0.20966,0.34433 0.36927,0.65167 0.23948,0.46116 0.18795,0.65255 -0.29489,1.09529 -2.15326,1.97443 -6.35174,2.73158 -9.10414,1.64183 z M 7.2692525,177.81586 c 0.04997,-0.35021 0.300992,-0.62684 0.613714,-0.67629 1.115164,-0.17637 1.927043,-0.64377 2.2146375,-1.27497 0.204633,-0.44912 0.298905,-3.68866 0.298905,-10.27156 0,-10.85423 0.0394,-10.63824 -2.0007595,-10.96804 -0.813586,-0.13152 -1.06048,-0.29813 -1.126497,-0.76019 l -0.08455,-0.59175 h 6.8696985 c 7.848945,0 9.459887,0.2763 11.142211,1.91109 2.474677,2.40475 2.572465,6.43574 0.21521,8.87132 -0.817699,0.84487 -3.154541,1.91759 -4.177324,1.91759 -0.285583,0 -0.519242,0.0687 -0.519242,0.15273 0,0.23071 5.487604,6.92218 7.003415,8.53982 1.321997,1.4108 2.526906,2.18716 3.910647,2.51974 0.49003,0.11777 0.727604,0.34601 0.727604,0.699 0,0.49284 -0.186401,0.52412 -3.123097,0.52412 h -3.123097 l -0.906151,-0.93491 c -0.498383,-0.5142 -2.635099,-3.16334 -4.748257,-5.88698 l -3.842105,-4.95206 -1.274004,-0.0813 -1.274003,-0.0814 0.08338,4.63874 c 0.09959,5.54063 0.156365,5.65925 2.824436,5.90118 1.489406,0.13506 1.624568,0.19929 1.624568,0.77202 v 0.62471 H 12.891648 7.1847045 Z M 20.57247,163.96819 c 2.938421,-1.54139 3.060042,-6.90709 0.193083,-8.51841 -0.783473,-0.44033 -1.637994,-0.6011 -3.836435,-0.72177 l -2.828443,-0.15525 -5.21e-4,5.10484 -5.22e-4,5.10483 2.712501,-0.13229 c 2.044984,-0.0997 2.970361,-0.26756 3.760337,-0.68195 z m 29.511537,13.92355 c 0,-0.36822 0.27384,-0.59234 0.952833,-0.77982 1.72416,-0.47606 1.675307,-0.13526 1.684585,-11.75157 0.0053,-6.65107 -0.09078,-10.71993 -0.260668,-11.03737 -0.147996,-0.27653 -0.750768,-0.63249 -1.339493,-0.79101 -0.781204,-0.21036 -1.047194,-0.40879 -0.984481,-0.73443 0.0814,-0.42266 1.650098,-0.87533 5.305036,-1.53083 l 0.992187,-0.17795 v 5.99965 5.99965 l 1.124479,-0.76449 c 1.569411,-1.06699 2.639101,-1.3776 4.744334,-1.3776 2.828758,0 4.43133,0.87073 5.600106,3.04271 0.516927,0.96063 0.576098,1.52244 0.640923,6.08542 0.03928,2.76489 0.128783,5.28665 0.198894,5.60389 0.190348,0.86131 0.862933,1.40757 1.733079,1.40757 0.650119,0 0.774851,0.10648 0.774851,0.66146 v 0.66145 h -4.516318 c -4.51028,0 -4.516206,-7.8e-4 -4.431771,-0.58551 0.06127,-0.42433 0.328015,-0.63502 0.968957,-0.76535 1.227755,-0.24964 1.441436,-0.5443 1.658056,-2.28636 0.285317,-2.29451 0.109563,-7.98841 -0.28546,-9.24806 -0.53187,-1.69603 -1.55519,-2.52402 -3.29809,-2.66855 -1.228848,-0.10191 -1.636468,-0.0108 -2.675995,0.59846 -1.989086,1.16568 -2.223276,1.9737 -2.230234,7.69491 -0.0064,5.29775 0.07369,5.59442 1.594616,5.90373 0.668482,0.13595 0.935766,0.34257 0.997663,0.77122 0.08443,0.58473 0.07851,0.58551 -4.431771,0.58551 -4.303697,0 -4.516318,-0.0243 -4.516318,-0.51673 z m 23.860242,-0.075 c 0.06593,-0.46146 0.312799,-0.62864 1.121269,-0.75933 0.570196,-0.0922 1.195274,-0.38443 1.389062,-0.64945 0.278639,-0.38106 0.352342,-2.56695 0.352342,-10.44977 0,-9.60344 -0.01956,-9.99278 -0.534988,-10.64804 -0.294244,-0.37407 -0.85979,-0.71755 -1.256771,-0.76329 -0.522841,-0.0602 -0.745786,-0.25258 -0.80887,-0.69785 l -0.08709,-0.61469 7.098541,0.0859 c 6.82304,0.0826 7.15291,0.11049 8.49912,0.71837 2.42748,1.09612 3.75393,3.15017 3.75733,5.81832 0.002,1.96136 -0.53477,3.2311 -1.97394,4.66508 -1.80018,1.7937 -3.44813,2.31638 -7.74802,2.45745 l -3.241149,0.10633 v 4.19138 c 0,3.98278 0.03005,4.22631 0.603886,4.89343 0.509373,0.59218 0.882053,0.72438 2.381253,0.84473 1.65175,0.13258 1.77736,0.18685 1.77736,0.7679 v 0.62523 h -5.706942 -5.706944 z m 12.519968,-13.09863 c 1.32894,-0.67909 1.93722,-1.34715 2.39479,-2.63012 0.55793,-1.56438 0.47358,-3.49674 -0.21198,-4.85625 -0.86069,-1.70679 -2.23083,-2.31061 -5.49011,-2.41949 l -2.513537,-0.084 -0.07174,5.39415 -0.07174,5.39416 2.452987,-0.12884 c 1.75077,-0.092 2.75596,-0.28366 3.51133,-0.66965 z m 53.096703,13.10487 c 0.0607,-0.42015 0.32695,-0.6348 0.94281,-0.76 1.74171,-0.35409 1.65527,0.25954 1.65527,-11.75136 0,-12.04999 0.10315,-11.32499 -1.69385,-11.90587 -1.52417,-0.49269 -0.98735,-0.96629 1.82615,-1.61108 1.4552,-0.33351 2.85419,-0.61355 3.10885,-0.62232 0.43454,-0.015 0.46302,0.73854 0.46302,12.2515 0,11.91562 0.0154,12.28697 0.53556,12.9483 0.33542,0.42642 0.85451,0.71166 1.38906,0.76329 0.65259,0.063 0.87341,0.22256 0.93805,0.67774 l 0.0846,0.59531 h -4.66701 c -4.66581,0 -4.66699,-1.5e-4 -4.58246,-0.58551 z m 11.32933,0.0497 c 0,-0.38484 0.22589,-0.58096 0.80184,-0.69615 0.44101,-0.0882 1.03632,-0.45846 1.32291,-0.82281 0.48238,-0.61325 0.52109,-1.09306 0.52109,-6.45963 v -5.79718 l -0.64943,-0.64943 c -0.35839,-0.35839 -0.9595,-0.64943 -1.34132,-0.64943 -0.56546,0 -0.67644,-0.10835 -0.60734,-0.59295 0.0906,-0.63537 0.34428,-0.7019 4.24002,-1.11198 l 1.77423,-0.18677 0.0779,7.55138 c 0.0862,8.36027 0.0601,8.23809 1.83453,8.5989 0.64551,0.13126 0.91233,0.34125 0.97371,0.76632 0.0844,0.58473 0.0785,0.58551 -4.43177,0.58551 -4.35851,0 -4.51632,-0.0187 -4.51632,-0.53578 z m 2.7036,-22.55377 c -0.75328,-0.80183 -0.74382,-1.56937 0.0304,-2.4695 1.0666,-1.24 3.15447,-0.81064 3.49015,0.71773 0.26796,1.22001 -0.53578,2.19549 -1.8934,2.29799 -0.81403,0.0615 -1.16791,-0.0573 -1.62719,-0.54622 z M 52.481074,136.89845 c -0.791618,-1.47915 -1.616261,-8.8338 -1.827804,-16.30143 -0.469589,-16.57681 1.192405,-30.551822 5.302004,-44.582293 2.430164,-8.296759 6.777037,-16.712972 11.596919,-22.453415 l 1.582495,-1.884739 -1.259001,-1.562405 c -4.216734,-5.232917 -5.395441,-12.76548 -3.066051,-19.593681 1.277301,-3.744183 3.888857,-8.216174 4.798086,-8.216174 0.647137,0 1.475363,1.098299 2.394267,3.175 1.220787,2.758951 4.21174,7.232884 6.493945,9.713786 0.21871,0.237753 0.288034,-0.517561 0.267125,-2.910416 -0.02395,-2.740541 -0.156892,-3.713866 -0.875042,-6.406495 -1.130442,-4.23847 -1.527539,-8.242196 -1.16876,-11.784004 0.238401,-2.353451 0.361053,-2.796794 0.892889,-3.227448 0.420502,-0.340502 0.832156,-0.446458 1.294713,-0.33325 1.154052,0.282448 1.467172,0.793886 1.336199,2.182493 -0.248812,2.637958 -0.113316,8.486238 0.242557,10.469201 l 0.371402,2.069493 0.95683,-1.818359 c 2.28353,-4.339591 6.11595,-8.602218 10.1433,-11.281926 2.76606,-1.840473 3.76699,-2.083322 4.65974,-1.130564 0.8072,0.861456 0.59449,1.882381 -0.52146,2.50285 -3.43658,1.910731 -7.02743,4.993522 -9.29594,7.980668 -1.54526,2.034791 -3.70494,6.362099 -4.29417,8.604179 -0.85651,3.259076 -0.77553,8.25033 0.17372,10.707417 0.25183,0.651858 0.26947,0.638171 0.66307,-0.514717 1.02612,-3.005541 3.85495,-6.38074 7.95672,-9.493496 5.28764,-4.012695 4.99018,-3.823643 5.72562,-3.63906 0.91947,0.230773 1.09949,1.135376 0.7127,3.581309 -0.17433,1.102409 -0.43191,4.075179 -0.5724,6.606154 -0.25683,4.627101 -0.70096,7.330307 -1.43874,8.757018 -0.54768,1.059089 -0.52757,1.117142 0.61205,1.76769 2.91831,1.665892 5.181773,4.310359 7.208123,8.421434 2.41097,4.891404 5.56605,8.233616 10.89589,11.542115 2.80917,1.743796 3.45478,2.442705 3.94315,4.268645 0.41438,1.549348 0.0207,3.420346 -1.1827,5.620489 -1.2621,2.307519 -2.10903,2.658269 -7.32268,3.032649 -5.49274,0.39442 -7.04121,0.64148 -13.361463,2.13186 -4.33667,1.02263 -7.33156,1.40022 -9.46601,1.19345 l -1.7931,-0.1737 -0.61076,1.40578 c -2.53937,5.84496 -2.45338,13.37492 0.21886,19.165132 3.24931,7.04062 9.57127,11.84987 17.193463,13.07946 2.66731,0.43029 7.12087,0.18263 9.67109,-0.53779 11.05355,-3.12257 18.25265,-14.43809 16.29984,-25.620012 -0.60368,-3.45672 -1.7841,-6.30595 -3.92987,-9.48577 -1.81099,-2.6837 -1.83844,-2.74966 -1.41377,-3.3978 0.92225,-1.407529 2.02205,-0.707809 4.40659,2.80359 6.45368,9.50346 5.34511,22.724632 -2.61846,31.228742 -2.34939,2.50886 -4.54077,4.19203 -7.19629,5.52737 -5.80913,2.92115 -12.38934,3.53872 -18.777203,1.76229 -8.74691,-2.43247 -15.53099,-9.42623 -18.034187,-18.59156 -0.466036,-1.706372 -0.574461,-2.849112 -0.587647,-6.193482 -0.01836,-4.65681 0.503661,-7.41406 1.995494,-10.5399 0.50807,-1.06458 0.71738,-1.77455 0.54053,-1.8335 -0.55887,-0.18628 -2.295633,-1.69511 -2.757742,-2.39579 -0.596903,-0.90508 -0.593445,-1.44218 0.01282,-1.990846 0.70601,-0.638929 0.985166,-0.556361 2.188981,0.647446 0.59693,0.59694 1.75779,1.40061 2.57968,1.78594 1.34802,0.632 1.79233,0.70007 4.53707,0.6951 2.62648,-0.005 3.56751,-0.13907 6.87916,-0.98179 4.785564,-1.2178 7.647684,-1.67804 13.353344,-2.147276 l 4.48979,-0.369245 0.86763,-1.003702 c 1.34635,-1.557496 1.80744,-3.917695 0.99264,-5.080996 -0.22272,-0.317974 -1.75924,-1.472419 -3.41448,-2.565433 -4.66578,-3.080969 -9.30137,-8.066534 -10.71716,-11.526258 -1.920194,-4.692344 -5.004234,-7.627542 -9.782034,-9.309937 -1.40298,-0.494028 -6.81065,-1.302588 -7.23295,-1.081479 -0.10915,0.05714 -0.19844,0.487096 -0.19844,0.955452 0,1.107668 -0.65848,2.027631 -1.45131,2.027631 -1.07344,0 -1.36517,-0.586603 -1.54388,-3.104382 -0.30945,-4.359513 -1.19175,-6.270459 -5.017308,-10.866826 -3.006633,-3.612437 -6.272592,-8.70058 -6.274436,-9.775145 -0.0012,-0.712421 -0.551004,-0.270677 -1.152525,0.926042 -0.926137,1.842541 -1.951479,4.980074 -2.269718,6.945312 -0.95429,5.893071 0.60712,11.04978 4.72671,15.610416 0.591516,0.654843 1.075648,1.409289 1.075849,1.676546 2.02e-4,0.267257 -0.688775,1.219757 -1.531058,2.116667 -7.497414,7.983655 -12.550841,19.772362 -15.500106,36.158863 -1.462027,8.12322 -2.135149,16.454652 -2.137647,26.458342 -0.002,7.8679 0.26905,11.94027 1.139463,17.1219 0.249646,1.48616 0.364172,2.94468 0.254501,3.24115 -0.265737,0.71835 -1.67488,0.74541 -2.052718,0.0394 z M 92.689567,45.044192 c 0.8659,-1.617941 1.15341,-3.655326 1.6667,-11.810707 l 0.0865,-1.373953 -1.58813,1.109369 c -3.88168,2.711499 -6.29645,5.736751 -7.61615,9.541564 l -0.74612,2.151139 2.91172,0.3112 c 1.60145,0.17116 3.05715,0.370119 3.23489,0.442132 0.80449,0.325939 1.77131,0.151141 2.05061,-0.370744 z M 33.812133,128.48199 c -2.585266,-0.34373 -5.08112,-1.56736 -7.073786,-3.46805 -1.688943,-1.61097 -2.800999,-3.36778 -3.54958,-5.60755 -0.461106,-1.37964 -0.490297,-3.33753 -0.562126,-37.703122 -0.05169,-24.730997 0.01398,-36.83637 0.206679,-38.099998 0.753629,-4.941832 4.773913,-9.333225 9.553179,-10.435023 0.688013,-0.158612 5.977267,-0.2703 12.982255,-0.274133 12.849259,-0.007 12.652752,-0.02953 12.652752,1.44874 0,1.474477 0.162987,1.455208 -12.309,1.455208 -7.306929,0 -11.967649,0.105129 -12.826494,0.289318 -1.909886,0.409597 -4.409992,2.165088 -5.616924,3.944016 -1.906306,2.809753 -1.810355,0.519798 -1.730625,41.302662 l 0.07159,36.617132 0.839892,1.77289 c 1.070389,2.25945 2.804983,3.99278 5.060127,5.05645 1.748256,0.82459 1.842154,0.8381 6.75583,0.97218 4.538794,0.12386 5.016348,0.18175 5.357813,0.64957 0.508433,0.69656 0.471733,1.10934 -0.154288,1.73536 -0.488116,0.48812 -0.852441,0.52609 -4.696354,0.48953 -2.291953,-0.0218 -4.524375,-0.0871 -4.960937,-0.14518 z m 89.378457,-0.12306 c -0.31894,-0.15861 -0.64302,-0.45291 -0.72019,-0.654 -0.23564,-0.61409 0.32002,-1.66103 0.95998,-1.80872 0.33257,-0.0768 6.61732,-0.16937 13.96613,-0.20582 l 13.36145,-0.0663 1.5875,-0.6383 c 1.12335,-0.45168 2.05629,-1.10923 3.19086,-2.24896 1.77624,-1.78433 2.61918,-3.29745 3.02291,-5.42633 0.38475,-2.02879 0.36685,-71.353307 -0.019,-73.460209 -0.36423,-1.989006 -1.30076,-3.722179 -2.8466,-5.268023 -1.7198,-1.719798 -3.57802,-2.557904 -6.21288,-2.802164 -1.18932,-0.110255 -11.08328,-0.213668 -21.98658,-0.229808 -13.97538,-0.02069 -19.92753,-0.115118 -20.17448,-0.320066 -0.43701,-0.362686 -0.45706,-1.60083 -0.0328,-2.025094 0.24176,-0.241756 5.46746,-0.3175 21.90483,-0.3175 23.90061,0 23.30761,-0.03877 26.17579,1.711181 2.65246,1.61833 4.50387,3.940444 5.6332,7.065389 l 0.60514,1.674471 v 36.909371 c 0,30.606712 -0.0627,37.157872 -0.36719,38.364582 -1.11593,4.42254 -4.15876,7.75481 -8.49635,9.30453 -1.7057,0.6094 -1.83144,0.61491 -15.34583,0.67229 -9.4127,0.04 -13.80535,-0.0313 -14.20592,-0.23053 z M 88.316297,63.326891 c -1.62547,-0.672341 -2.44776,-2.982522 -1.5828,-4.446793 1.108,-1.875688 3.55382,-2.174056 4.95624,-0.604616 0.57788,0.646705 0.7276,1.073513 0.7276,2.074132 0,1.425027 -0.46392,2.251798 -1.59042,2.834333 -0.83712,0.432889 -1.69197,0.481561 -2.51062,0.142944 z M 126.94546,58.97248 c -1.90468,-0.846542 -2.51354,-2.192798 -2.51354,-5.557724 0,-2.112639 0.0835,-2.579841 0.59531,-3.331885 1.34188,-1.971628 1.35148,-1.973911 8.6177,-2.050594 6.36199,-0.06714 6.55628,-0.05355 7.56464,0.529167 1.60766,0.929039 2.1193,2.187274 2.13063,5.239662 0.008,2.279244 -0.0581,2.638488 -0.65203,3.516488 -1.25953,1.862092 -1.99747,2.029776 -8.88093,2.018028 -4.46439,-0.0076 -6.2778,-0.103589 -6.86178,-0.363142 z m 12.85868,-2.769665 c 0.51357,-0.41586 0.63146,-0.803177 0.71967,-2.364373 0.0973,-1.72192 0.0528,-1.919769 -0.57283,-2.545378 l -0.67834,-0.678336 h -5.44801 c -5.43153,0 -5.44998,0.002 -6.09744,0.649432 -0.54433,0.544323 -0.64943,0.904809 -0.64943,2.227319 0,3.069827 0.25251,3.184411 7.04829,3.198309 4.57082,0.0093 5.12372,-0.03807 5.67809,-0.486973 z m 10.10513,-26.889104 c -0.54856,-0.384226 -0.57268,-0.611032 -0.65418,-6.151562 -0.099,-6.727455 -0.28968,-7.417684 -2.33883,-8.464606 -1.07444,-0.548934 -1.51877,-0.595313 -5.70341,-0.595313 h -4.5382 l -0.44828,1.173804 c -0.76922,2.014174 -3.02005,3.58224 -5.14917,3.58722 -2.31767,0.0054 -4.98179,-2.070455 -5.54922,-4.323944 -0.7234,-2.872881 0.86376,-5.9057707 3.55547,-6.7941147 0.52844,-0.174401 1.65179,-0.267111 2.49633,-0.206022 1.92327,0.139116 3.39636,1.055807 4.37203,2.7206747 l 0.70123,1.196549 h 4.72811 c 6.46921,0 8.03833,0.568978 9.66487,3.504584 l 0.77028,1.390207 0.0836,6.301846 c 0.0863,6.507991 0.01,7.059612 -0.98318,7.059612 -0.24085,0 -0.6942,-0.179521 -1.00746,-0.398935 z M 132.57664,15.541377 c 0.71882,-0.503475 1.38063,-1.727258 1.37929,-2.550487 -0.002,-0.934851 -0.90111,-2.199331 -1.84192,-2.589026 -3.06826,-1.2709147 -5.42562,2.974916 -2.82248,5.083545 0.70965,0.574835 2.50076,0.605349 3.28511,0.05597 z"
       id="path1" /></g></svg>
